<?xml version="1.0" encoding="utf-8"?>
<!-- Generator: Adobe Illustrator 16.0.0, SVG Export Plug-In . SVG Version: 6.00 Build 0)  -->
<!DOCTYPE svg PUBLIC "-//W3C//DTD SVG 1.1//EN" "http://www.w3.org/Graphics/SVG/1.1/DTD/svg11.dtd">
<svg version="1.1" id="Layer_1" xmlns="http://www.w3.org/2000/svg" xmlns:xlink="http://www.w3.org/1999/xlink" x="0px" y="0px"
	 width="58px" height="35px" viewBox="0 0 58 35" enable-background="new 0 0 58 35" xml:space="preserve">
<g>
	<path fill="#FFFFFF" d="M5.71,6.898c0,0.07-0.009,0.13-0.026,0.182C5.667,7.132,5.649,7.176,5.632,7.21
		C5.545,7.54,5.467,7.869,5.398,8.198c-0.07,0.33-0.139,0.667-0.208,1.014c0.329-0.52,0.68-1.109,1.053-1.768
		C6.615,6.786,7.04,6.17,7.517,5.598c0.477-0.572,1.022-1.04,1.638-1.404C9.77,3.83,10.485,3.683,11.3,3.752
		c0.468,0.052,0.867,0.204,1.196,0.455c0.329,0.251,0.594,0.559,0.793,0.923c0.199,0.364,0.333,0.763,0.403,1.196
		c0.069,0.434,0.086,0.858,0.052,1.274c-0.087,0.919-0.338,1.842-0.754,2.769c-0.416,0.928-1.014,1.833-1.794,2.717
		c0.763,0.087,1.404,0.446,1.924,1.079c0.52,0.633,0.849,1.582,0.988,2.847c0.052,0.538,0.017,1.083-0.104,1.638
		c-0.122,0.555-0.304,1.092-0.546,1.611c-0.243,0.521-0.533,1.02-0.871,1.496c-0.338,0.477-0.698,0.896-1.079,1.26
		c-0.381,0.382-0.889,0.742-1.521,1.08c-0.633,0.338-1.322,0.605-2.067,0.806c-0.746,0.198-1.508,0.294-2.288,0.286
		c-0.78-0.01-1.491-0.17-2.132-0.481c-0.676-0.26-1.257-0.637-1.742-1.131c-0.485-0.494-0.862-1.009-1.131-1.547
		c-0.269-0.537-0.421-1.058-0.455-1.56c-0.035-0.503,0.069-0.893,0.312-1.17c0.069-0.087,0.165-0.17,0.286-0.248
		s0.256-0.143,0.403-0.194c0.147-0.052,0.294-0.078,0.442-0.078c0.147,0,0.273,0.034,0.377,0.104
		c0.243-1.058,0.502-2.063,0.78-3.017c0.034-0.156,0.065-0.308,0.091-0.455c0.026-0.147,0.056-0.299,0.091-0.455
		c0.017-0.052,0.017-0.043,0,0.026s-0.035,0.152-0.052,0.247c-0.018,0.096-0.035,0.182-0.052,0.26s-0.017,0.091,0,0.039
		c0.329-1.473,0.611-2.955,0.845-4.446c0.234-1.49,0.567-2.964,1.001-4.42c0.156-0.242,0.342-0.351,0.559-0.325
		C5.471,6.365,5.623,6.517,5.71,6.794V6.898z M1.368,20.002c-0.052,0.416,0.009,0.832,0.182,1.248l0.26-1.482L1.368,20.002z
		 M2.928,22.706L2.85,22.862c0.451,0.329,0.936,0.585,1.456,0.767s1.031,0.264,1.534,0.247c0.624-0.017,1.244-0.13,1.859-0.338
		s1.187-0.489,1.716-0.845s1.001-0.775,1.417-1.262c0.416-0.484,0.737-1.021,0.962-1.611c0.364-0.936,0.55-1.785,0.559-2.549
		c0.009-0.762-0.147-1.351-0.468-1.767c-0.321-0.416-0.789-0.611-1.404-0.585c-0.616,0.026-1.365,0.377-2.249,1.053l-0.026,0.026
		c-0.243,0.139-0.477,0.195-0.702,0.169c-0.226-0.026-0.408-0.112-0.546-0.26c-0.139-0.147-0.221-0.333-0.247-0.559
		c-0.026-0.225,0.039-0.459,0.195-0.702c0.537-0.485,1.044-0.918,1.521-1.3c0.477-0.381,0.906-0.771,1.287-1.17
		c0.381-0.398,0.719-0.845,1.014-1.339c0.295-0.494,0.546-1.105,0.754-1.833c0.069-0.26,0.125-0.533,0.169-0.819
		c0.043-0.286,0.052-0.572,0.026-0.858s-0.096-0.559-0.208-0.819c-0.113-0.26-0.299-0.485-0.559-0.676
		c-0.381,0.052-0.763,0.239-1.144,0.559C9.384,6.712,9.021,7.089,8.674,7.522c-0.347,0.434-0.655,0.88-0.923,1.339
		C7.482,9.321,7.27,9.698,7.114,9.992c-0.555,1.109-1.031,2.171-1.43,3.185s-0.758,2.024-1.079,3.029
		c-0.321,1.005-0.611,2.037-0.871,3.095c-0.26,1.057-0.52,2.192-0.78,3.405H2.928z"/>
	<path fill="#FFFFFF" d="M20.452,16.05c-0.208,0.451-0.438,0.901-0.689,1.352c-0.251,0.451-0.529,0.862-0.832,1.234
		c-0.303,0.373-0.637,0.703-1.001,0.988c-0.364,0.286-0.78,0.49-1.248,0.611c0,0.277,0.021,0.563,0.065,0.857
		c0.043,0.295,0.125,0.543,0.247,0.741c0.121,0.2,0.294,0.325,0.52,0.378c0.225,0.051,0.511-0.027,0.858-0.234
		c0.121-0.069,0.308-0.187,0.559-0.352c0.251-0.164,0.52-0.359,0.806-0.585c0.286-0.226,0.554-0.472,0.806-0.741
		c0.251-0.268,0.446-0.533,0.585-0.793c0.069-0.156,0.169-0.233,0.299-0.233s0.247,0.052,0.351,0.155
		c0.104,0.104,0.173,0.234,0.208,0.391c0.034,0.156,0,0.303-0.104,0.441c-0.104,0.209-0.291,0.46-0.559,0.754
		c-0.269,0.295-0.551,0.586-0.845,0.871c-0.295,0.287-0.585,0.547-0.871,0.78c-0.286,0.234-0.507,0.386-0.663,0.455
		c-0.035,0.017-0.104,0.052-0.208,0.104c-0.104,0.052-0.221,0.112-0.351,0.182c-0.13,0.068-0.265,0.13-0.403,0.182
		c-0.139,0.053-0.26,0.078-0.364,0.078c-0.381,0-0.728-0.074-1.04-0.221c-0.312-0.147-0.581-0.348-0.806-0.598
		c-0.225-0.252-0.407-0.542-0.546-0.871c-0.139-0.33-0.226-0.676-0.26-1.041c-0.018-0.121-0.031-0.237-0.039-0.35
		c-0.009-0.113-0.013-0.23-0.013-0.352c-0.122-0.087-0.182-0.203-0.182-0.352c0-0.146,0.052-0.272,0.156-0.377
		c0-0.26,0.013-0.52,0.039-0.779s0.082-0.529,0.169-0.807c0.121-0.45,0.299-0.996,0.533-1.638c0.234-0.641,0.533-1.248,0.897-1.82
		c0.364-0.572,0.793-1.049,1.287-1.43c0.494-0.381,1.053-0.537,1.677-0.468c0.398,0.035,0.693,0.191,0.884,0.468
		c0.191,0.277,0.312,0.598,0.364,0.962c0.052,0.364,0.047,0.737-0.013,1.118C20.664,15.496,20.573,15.808,20.452,16.05z
		 M18.917,14.724c-0.208,0.173-0.416,0.416-0.624,0.728s-0.403,0.659-0.585,1.04c-0.182,0.381-0.342,0.775-0.481,1.184
		c-0.139,0.406-0.251,0.783-0.338,1.131c0.139-0.139,0.286-0.313,0.442-0.521c0.156-0.208,0.329-0.477,0.52-0.806
		c0.086-0.139,0.19-0.32,0.312-0.546c0.121-0.225,0.238-0.468,0.351-0.728c0.113-0.26,0.208-0.52,0.286-0.78
		C18.879,15.166,18.917,14.932,18.917,14.724z"/>
	<path fill="#FFFFFF" d="M28.824,7.704c-0.156,0.746-0.403,1.629-0.741,2.652c-0.338,1.023-0.736,2.054-1.195,3.094
		c-0.46,1.04-0.972,2.015-1.534,2.925c-0.563,0.91-1.148,1.625-1.755,2.145c0.017,0.278,0.035,0.556,0.052,0.832
		c0.017,0.278,0.065,0.547,0.143,0.807c0.078,0.26,0.186,0.498,0.325,0.715s0.329,0.403,0.572,0.559
		c0.953-0.189,1.811-0.541,2.574-1.053c0.762-0.511,1.446-1.148,2.054-1.91c0.121-0.104,0.247-0.156,0.377-0.156
		s0.238,0.035,0.325,0.104c0.086,0.07,0.146,0.16,0.182,0.273s0.026,0.246-0.025,0.402c-0.295,0.416-0.659,0.854-1.093,1.313
		c-0.434,0.46-0.901,0.876-1.403,1.248c-0.503,0.373-1.027,0.681-1.573,0.923c-0.546,0.243-1.065,0.352-1.56,0.325
		c-0.494-0.026-0.949-0.217-1.365-0.572c-0.416-0.354-0.754-0.94-1.014-1.755c-0.191-0.606-0.308-1.283-0.351-2.027
		c-0.043-0.746-0.057-1.431-0.039-2.055c0.017-0.572,0.074-1.235,0.169-1.989c0.095-0.754,0.229-1.538,0.403-2.353
		s0.394-1.638,0.663-2.47c0.269-0.832,0.585-1.621,0.949-2.366c0.364-0.745,0.775-1.408,1.235-1.989
		c0.459-0.581,0.975-1.036,1.547-1.365c0.416-0.26,0.823-0.312,1.222-0.156c0.364,0.104,0.629,0.316,0.794,0.637
		c0.164,0.321,0.26,0.68,0.285,1.079c0.026,0.399,0.009,0.798-0.052,1.196C28.932,7.115,28.875,7.444,28.824,7.704z M25.158,9.836
		c-0.503,1.144-0.884,2.305-1.144,3.484c-0.26,1.179-0.407,2.383-0.442,3.614c0.294-0.416,0.55-0.862,0.767-1.339
		c0.216-0.477,0.42-0.949,0.611-1.417c0.208-0.485,0.442-1.075,0.702-1.768c0.26-0.693,0.507-1.413,0.741-2.158
		c0.233-0.745,0.429-1.478,0.585-2.197s0.225-1.365,0.208-1.937c-0.087,0.104-0.174,0.217-0.26,0.338
		c-0.087,0.122-0.174,0.243-0.261,0.364c-0.329,0.451-0.606,0.936-0.832,1.456S25.383,9.316,25.158,9.836z"/>
	<path fill="#FFFFFF" d="M36.026,7.704c-0.156,0.746-0.403,1.629-0.741,2.652c-0.338,1.023-0.736,2.054-1.195,3.094
		c-0.46,1.04-0.972,2.015-1.534,2.925C31.992,17.285,31.407,18,30.8,18.52c0.017,0.278,0.034,0.556,0.052,0.832
		c0.017,0.278,0.064,0.547,0.143,0.807s0.187,0.498,0.325,0.715s0.329,0.403,0.572,0.559c0.953-0.189,1.811-0.541,2.574-1.053
		c0.762-0.511,1.446-1.148,2.054-1.91c0.121-0.104,0.247-0.156,0.377-0.156s0.238,0.035,0.325,0.104
		c0.086,0.07,0.146,0.16,0.182,0.273s0.026,0.246-0.025,0.402c-0.295,0.416-0.659,0.854-1.093,1.313
		c-0.434,0.46-0.901,0.876-1.403,1.248c-0.503,0.373-1.027,0.681-1.573,0.923c-0.546,0.243-1.066,0.352-1.561,0.325
		c-0.493-0.026-0.948-0.217-1.364-0.572c-0.416-0.354-0.754-0.94-1.015-1.755c-0.19-0.606-0.308-1.283-0.351-2.027
		c-0.044-0.746-0.057-1.431-0.039-2.055c0.017-0.572,0.073-1.235,0.169-1.989c0.095-0.754,0.229-1.538,0.403-2.353
		c0.173-0.815,0.394-1.638,0.663-2.47c0.269-0.832,0.585-1.621,0.948-2.366c0.364-0.745,0.776-1.408,1.235-1.989
		c0.459-0.581,0.975-1.036,1.547-1.365c0.416-0.26,0.823-0.312,1.222-0.156c0.364,0.104,0.629,0.316,0.794,0.637
		c0.164,0.321,0.26,0.68,0.285,1.079c0.026,0.399,0.009,0.798-0.052,1.196C36.134,7.115,36.078,7.444,36.026,7.704z M32.36,9.836
		c-0.503,1.144-0.884,2.305-1.144,3.484c-0.261,1.179-0.408,2.383-0.442,3.614c0.295-0.416,0.55-0.862,0.767-1.339
		c0.217-0.477,0.421-0.949,0.611-1.417c0.208-0.485,0.442-1.075,0.702-1.768c0.26-0.693,0.507-1.413,0.741-2.158
		c0.233-0.745,0.429-1.478,0.585-2.197s0.225-1.365,0.208-1.937c-0.087,0.104-0.174,0.217-0.26,0.338
		c-0.087,0.122-0.174,0.243-0.261,0.364c-0.329,0.451-0.606,0.936-0.832,1.456S32.585,9.316,32.36,9.836z"/>
	<path fill="#FFFFFF" d="M36.884,15.192c0.017-0.156,0.078-0.277,0.182-0.364c0.104-0.086,0.213-0.13,0.325-0.13
		s0.217,0.035,0.313,0.104c0.095,0.069,0.16,0.182,0.194,0.338c0.018,0.451,0,0.897-0.052,1.339
		c-0.052,0.442-0.096,0.888-0.13,1.339c-0.035,0.451-0.057,0.901-0.065,1.352c-0.009,0.451,0.03,0.893,0.117,1.326
		c0.537-0.434,0.958-0.896,1.262-1.391c0.303-0.494,0.559-1.014,0.767-1.561c0.208-0.546,0.39-1.109,0.546-1.69
		c0.156-0.581,0.355-1.166,0.598-1.755c0.121-0.19,0.269-0.329,0.442-0.416c0.173-0.086,0.342-0.121,0.507-0.104
		c0.165,0.018,0.316,0.087,0.455,0.208c0.139,0.122,0.234,0.295,0.286,0.52c0.052,0.728,0.052,1.456,0,2.184
		c-0.052,0.729-0.069,1.465-0.052,2.21v0.624c0.45-0.26,0.914-0.498,1.391-0.715s0.966-0.395,1.469-0.533
		c0.19-0.052,0.407-0.086,0.65-0.104c0.242-0.018,0.459,0,0.65,0.052c0.19,0.052,0.338,0.151,0.441,0.299
		c0.104,0.147,0.121,0.36,0.052,0.638c-0.104,0.277-0.269,0.411-0.493,0.402c-0.226-0.009-0.382-0.107-0.469-0.299h-0.182
		c-0.624,0.156-1.227,0.39-1.807,0.701c-0.581,0.313-1.132,0.65-1.651,1.015c0.034,1.647,0.004,3.263-0.091,4.849
		c-0.096,1.586-0.403,3.202-0.923,4.85c-0.174,0.52-0.399,1.053-0.677,1.599s-0.615,1.022-1.014,1.43s-0.858,0.702-1.378,0.885
		c-0.521,0.182-1.101,0.177-1.742-0.014c-0.416-0.121-0.784-0.342-1.104-0.663c-0.321-0.32-0.585-0.685-0.793-1.092
		s-0.36-0.836-0.455-1.287c-0.096-0.45-0.126-0.875-0.092-1.273c0.087-1.109,0.3-2.129,0.638-3.055
		c0.338-0.928,0.784-1.781,1.339-2.562s1.204-1.499,1.95-2.158c0.745-0.658,1.56-1.274,2.443-1.846c0-0.19,0-0.386,0-0.585
		s0.009-0.395,0.026-0.585c-0.018,0-0.026,0.009-0.026,0.026c-0.155,0.277-0.316,0.555-0.48,0.832
		c-0.165,0.277-0.368,0.52-0.611,0.728l-1.17,0.832c-0.174,0.121-0.359,0.19-0.559,0.208c-0.2,0.018-0.391-0.004-0.572-0.065
		c-0.182-0.061-0.347-0.164-0.494-0.312s-0.247-0.325-0.299-0.533c-0.121-0.485-0.174-0.971-0.156-1.456s0.061-0.966,0.13-1.442
		s0.144-0.958,0.222-1.444C36.819,16.163,36.867,15.678,36.884,15.192z M40.628,25.645c0.069-0.59,0.108-1.175,0.117-1.756
		c0.008-0.58,0.004-1.156-0.014-1.729c-0.537,0.434-1.04,0.893-1.508,1.378s-0.901,1.005-1.3,1.56
		c-0.555,0.814-0.967,1.6-1.235,2.354s-0.429,1.616-0.48,2.587c0,0.208,0.03,0.473,0.091,0.793s0.16,0.624,0.299,0.91
		s0.316,0.516,0.533,0.689c0.217,0.173,0.48,0.216,0.793,0.13c0.242-0.07,0.459-0.213,0.65-0.43c0.19-0.217,0.351-0.455,0.48-0.715
		s0.242-0.528,0.338-0.806c0.096-0.278,0.178-0.512,0.247-0.702c0.104-0.277,0.19-0.551,0.26-0.818
		c0.069-0.27,0.139-0.543,0.208-0.82c0.053-0.155,0.104-0.346,0.156-0.571s0.1-0.46,0.144-0.702c0.043-0.242,0.086-0.48,0.13-0.715
		C40.581,26.047,40.611,25.835,40.628,25.645z"/>
	<path fill="#FFFFFF" d="M45.516,7.99c0.052-0.243,0.173-0.373,0.364-0.39c0.19-0.017,0.294,0.096,0.312,0.338
		c0.069,0.503,0.1,0.971,0.091,1.404c-0.009,0.434-0.052,0.858-0.13,1.274s-0.187,0.832-0.325,1.248s-0.295,0.858-0.468,1.326
		c-0.087,0.243-0.221,0.347-0.402,0.312c-0.183-0.034-0.273-0.173-0.273-0.416c-0.018-0.503-0.009-0.962,0.026-1.378
		c0.034-0.416,0.091-0.823,0.169-1.222c0.078-0.398,0.169-0.797,0.272-1.196C45.256,8.892,45.377,8.458,45.516,7.99z"/>
	<path fill="#FFFFFF" d="M48.324,19.352c-0.104,0.122-0.217,0.195-0.338,0.222s-0.229,0.013-0.325-0.039
		c-0.095-0.052-0.173-0.134-0.233-0.247c-0.062-0.112-0.074-0.247-0.039-0.402c0.242-0.59,0.576-1.191,1.001-1.808
		c0.425-0.615,0.857-1.209,1.3-1.781c0.442-0.572,0.858-1.105,1.248-1.599s0.663-0.897,0.819-1.209c0-0.035,0.008-0.061,0.025-0.078
		c0.139-0.225,0.308-0.373,0.507-0.442s0.391-0.078,0.572-0.026c0.183,0.052,0.334,0.165,0.455,0.338s0.173,0.39,0.156,0.65
		c-0.191,0.763-0.325,1.517-0.403,2.262s-0.057,1.517,0.065,2.313c0.034,0.295,0.091,0.586,0.169,0.871
		c0.078,0.286,0.16,0.576,0.247,0.871c0.589-0.295,1.174-0.567,1.755-0.818c0.58-0.252,1.165-0.508,1.755-0.768
		c0.173-0.068,0.325-0.073,0.455-0.013s0.221,0.143,0.272,0.247c0.053,0.104,0.061,0.225,0.026,0.363
		c-0.035,0.139-0.13,0.252-0.286,0.338c-0.537,0.295-1.131,0.611-1.781,0.949c-0.649,0.338-1.296,0.707-1.937,1.105
		c0,0.104,0,0.203,0,0.299s-0.009,0.195-0.026,0.299c-0.034,0.348-0.095,0.698-0.182,1.053c-0.087,0.355-0.26,0.664-0.52,0.924
		c-0.434,0.433-0.871,0.731-1.313,0.896c-0.442,0.164-0.85,0.234-1.222,0.208c-0.373-0.026-0.689-0.139-0.949-0.338
		s-0.429-0.446-0.507-0.741s-0.039-0.615,0.117-0.962c0.155-0.347,0.459-0.685,0.909-1.014c0.382-0.277,0.667-0.485,0.858-0.624
		c0.19-0.139,0.416-0.277,0.676-0.416c-0.139-0.78-0.256-1.504-0.351-2.171c-0.096-0.667-0.144-1.33-0.144-1.989
		c-0.52,0.503-1.035,1.019-1.547,1.547C49.099,18.152,48.67,18.729,48.324,19.352z"/>
</g>
</svg>
